<?xml version="1.0" standalone="no"?>
<!DOCTYPE svg PUBLIC "-//W3C//DTD SVG 20010904//EN"
 "http://www.w3.org/TR/2001/REC-SVG-20010904/DTD/svg10.dtd">
<svg version="1.0" xmlns="http://www.w3.org/2000/svg"
 width="200.000000pt" height="200.000000pt" viewBox="0 0 200.000000 200.000000"
 preserveAspectRatio="xMidYMid meet">
<metadata>
Created by potrace 1.14, written by Peter Selinger 2001-2017
</metadata>
<g transform="translate(0.000000,200.000000) scale(0.100000,-0.100000)"
fill="#000000" stroke="none">
<path d="M1077 1923 c-14 -13 -7 -51 14 -77 27 -34 72 -33 77 1 7 48 -63 105
-91 76z"/>
<path d="M1207 1903 c-4 -3 -7 -18 -7 -33 0 -57 91 -97 98 -43 7 48 -63 105
-91 76z"/>
<path d="M1383 1864 c-3 -8 -1 -33 6 -53 17 -59 17 -60 -61 -63 l-73 -3 0 -35
c0 -33 2 -35 39 -40 35 -4 37 -7 23 -19 -11 -9 -17 -28 -17 -56 0 -48 18 -70
74 -89 44 -15 34 -36 -20 -45 -35 -6 -39 -9 -39 -36 0 -29 1 -30 54 -33 59 -3
80 9 109 63 17 32 22 156 9 207 -6 24 -4 27 20 30 24 3 28 8 28 33 0 26 -4 30
-31 33 -30 3 -32 6 -37 53 -3 27 -9 54 -12 59 -10 16 -65 12 -72 -6z m31 -279
c5 -13 2 -14 -17 -4 -32 17 -33 19 -10 19 12 0 23 -7 27 -15z"/>
<path d="M895 1831 c-3 -6 -19 -11 -34 -11 -15 0 -32 -5 -39 -12 -17 -17 -15
-57 2 -64 11 -4 12 -12 4 -35 -21 -61 20 -129 79 -129 41 0 68 13 108 51 18
17 44 29 65 31 28 2 36 8 38 27 5 32 -21 51 -66 51 -27 0 -45 -9 -78 -40 -76
-70 -97 -41 -38 52 32 50 29 82 -8 86 -14 2 -29 -2 -33 -7z"/>
<path d="M624 1769 c-17 -5 -39 -18 -49 -29 -10 -11 -22 -20 -27 -20 -4 0 -42
-16 -84 -36 -68 -33 -75 -39 -72 -63 2 -21 9 -27 36 -29 20 -2 46 5 67 17 38
22 45 16 45 -46 0 -68 76 -111 180 -101 30 3 35 7 38 31 4 30 0 32 -70 42 -64
8 -80 26 -76 83 3 39 7 47 35 62 52 28 64 41 61 69 -3 29 -31 36 -84 20z"/>
<path d="M1175 1406 c-8 -19 -15 -38 -15 -41 0 -4 -10 -29 -21 -56 -15 -35
-27 -49 -41 -49 -11 0 -33 -13 -49 -30 -25 -24 -30 -37 -27 -67 3 -35 6 -38
37 -41 26 -3 40 3 65 27 l31 30 24 -34 c28 -42 79 -75 115 -75 37 0 158 49
179 73 10 11 17 32 15 46 -2 20 -9 27 -33 29 -18 2 -33 -2 -40 -12 -12 -16
-97 -56 -120 -56 -7 0 -31 22 -53 48 l-41 48 25 69 c32 87 29 119 -9 123 -23
3 -30 -2 -42 -32z"/>
<path d="M583 1393 c-3 -6 -3 -22 -1 -35 3 -20 9 -23 55 -26 l52 -3 -15 -34
c-19 -46 -18 -125 2 -155 30 -44 44 -50 128 -50 104 0 149 23 144 73 -4 40
-36 48 -74 18 -39 -31 -108 -29 -130 4 -13 20 -14 30 -4 60 14 43 54 83 95 93
25 7 30 13 30 38 l0 29 -139 0 c-97 0 -140 -4 -143 -12z"/>
<path d="M780 989 c-70 -7 -77 -10 -110 -46 -100 -111 -124 -203 -118 -458 3
-146 7 -188 22 -220 70 -156 123 -228 165 -223 37 4 42 44 7 58 -14 5 -26 14
-26 19 0 5 -6 16 -13 23 -30 30 -79 138 -96 210 -16 70 -14 286 4 355 18 69
56 146 94 191 27 32 32 34 132 44 164 16 211 10 322 -44 54 -26 97 -51 97 -56
0 -4 16 -16 36 -25 48 -24 134 -105 150 -144 10 -23 14 -81 14 -200 0 -163 -1
-170 -25 -205 -26 -39 -40 -45 -170 -73 -112 -25 -238 -63 -260 -79 -26 -19
-13 -46 23 -46 15 0 32 4 38 8 13 11 101 36 238 68 131 31 163 50 196 115 18
33 20 59 20 205 0 204 -11 252 -73 311 -80 76 -254 183 -346 212 -38 12 -206
12 -321 0z"/>
<path d="M759 739 c-54 -58 -26 -149 47 -149 27 0 34 4 34 20 0 12 -10 24 -24
29 -30 12 -37 32 -20 56 21 28 48 8 52 -39 3 -31 7 -36 27 -36 31 0 41 35 25
84 -23 69 -93 87 -141 35z"/>
<path d="M1107 732 c-26 -28 -22 -91 8 -135 14 -20 30 -37 34 -37 5 0 11 -10
14 -21 5 -19 11 -21 45 -17 22 3 56 13 76 23 30 15 36 22 36 49 0 25 -11 42
-52 83 -79 76 -127 93 -161 55z m108 -83 c62 -58 56 -78 -12 -44 -36 18 -48
31 -57 63 -11 36 19 27 69 -19z"/>
<path d="M734 335 c-12 -30 4 -45 48 -45 24 0 70 -5 103 -11 33 -5 87 -14 120
-19 33 -5 79 -12 103 -16 40 -6 42 -5 42 19 0 22 -6 26 -47 36 -27 6 -66 13
-88 15 -22 3 -78 12 -125 20 -109 20 -149 20 -156 1z"/>
</g>
</svg>
